<svg width="1920" height="4000" viewBox="0 0 1920 4000" fill="none" xmlns="http://www.w3.org/2000/svg">
<g clip-path="url(#clip0)">
<rect width="1920" height="4000" fill="white"/>
<rect width="1933" height="4008" fill="#FFF3E8"/>
<rect x="840" y="2231.58" width="351.85" height="348.582" transform="rotate(-33.7699 840 2231.58)" fill="#54157B"/>
<path d="M208.706 1181.75L144.268 1740.48L-352.34 1221.3L208.706 1181.75Z" fill="#02C8BC" fill-opacity="0.69"/>
<path d="M247.251 3924.62L-203 3587.56L495.637 3420L247.251 3924.62Z" fill="#C802B4" fill-opacity="0.69"/>
<path d="M1413 0.5C1413 136.086 1296.15 246 1152 246C1007.85 246 891 136.086 891 0.5C891 -135.086 1007.85 -245 1152 -245C1296.15 -245 1413 -135.086 1413 0.5Z" fill="#FFBB7C"/>
<path d="M1784.16 508.567L1915.59 594.325L2037.76 495.83L1996.82 647.327L2128.24 733.086L1971.51 740.958L1930.56 892.454L1874.64 745.822L1717.9 753.694L1840.08 655.199L1784.16 508.567Z" fill="#0E853D"/>
<ellipse cx="1953.16" cy="3171.5" rx="375" ry="377" transform="rotate(-163.381 1953.16 3171.5)" fill="#FFA7A7"/>
</g>
<defs>
<clipPath id="clip0">
<rect width="1920" height="4000" fill="white"/>
</clipPath>
</defs>
</svg>
